<?xml version="1.0" encoding="UTF-8"?>
<svg id="Capa_13" data-name="Capa 13" xmlns="http://www.w3.org/2000/svg" viewBox="0 0 404.81 382.86">
  <defs>
    <style>
      .cls-1 {
        fill: none;
      }

      .cls-2 {
        fill: #fff;
      }

      .cls-3 {
        fill: #9185d3;
      }
    </style>
  </defs>
  <path class="cls-1" d="M390.11,26.22v330.41c0,12.41-10.07,22.51-22.48,22.51H37.21c-12.44,0-22.51-10.09-22.51-22.51V26.22c0-12.41,10.07-22.51,22.51-22.51h330.42c12.41,0,22.48,10.09,22.48,22.51Z"/>
  <path class="cls-2" d="M231.39,135.29h-9.09l26.96,37.76c1.28,1.8,1.28,4.21,0,6l-26.96,37.75h9.09l22.58-31.78c1.88-2.64,2.87-5.75,2.87-8.99s-.99-6.35-2.87-8.99l-22.58-31.76Z"/>
  <path class="cls-3" d="M298.9,135.73h-9.08l-22.56,31.76c-1.88,2.64-2.87,5.75-2.87,8.99s.99,6.35,2.87,8.99l22.56,31.78h9.08l-27.17-38.08c-1.14-1.6-1.14-3.75,0-5.35l27.17-38.08Z"/>
  <path class="cls-2" d="M208.21,137.58c-4.09-2.1-8.57-3.17-13.36-3.17h-48.45l.13,81.51h7.41v-34.53h.02v-7.67h-.02l-.11-31.77h41.02c3.51,0,6.8.74,9.75,2.18,2.94,1.43,5.33,3.4,7.04,5.82,1.72,2.39,2.58,5.06,2.58,7.96s-.86,5.42-2.58,7.83c-1.74,2.42-4.1,4.39-7.04,5.82-2.96,1.43-6.24,2.16-9.75,2.16h-35.35v7.67h35.35c4.79,0,9.28-1.07,13.36-3.17,4.09-2.1,7.37-5,9.79-8.59,2.42-3.61,3.65-7.56,3.65-11.72s-1.22-8.23-3.65-11.82c-2.42-3.53-5.71-6.4-9.79-8.51Z"/>
  <g>
    <path class="cls-3" d="M228.04,224.19l-38.83,65.92c-1.45,2.42-3.78,3.52-6.07,3.52-3.52,0-6.99-2.55-7.08-6.83l-1.57-62.61h8.18l1.45,58.4,34.39-58.4h9.53Z"/>
    <path class="cls-3" d="M320.77,96.68l-17.87,30.33h-9.47l19.37-32.27-218.7,41.9,40.31,16.14v8.81l-46.98-18.82c-6.54-2.61-5.54-12.15,1.38-13.47l224.65-43.01c.47-.09.94-.13,1.38-.13,5.19,0,8.75,5.73,5.91,10.51Z"/>
  </g>
</svg>