<?xml version="1.0" encoding="UTF-8"?>
<svg version="1.1" xmlns="http://www.w3.org/2000/svg" width="225" height="225">
<path d="M0 0 C74.25 0 148.5 0 225 0 C225 74.25 225 148.5 225 225 C150.75 225 76.5 225 0 225 C0 150.75 0 76.5 0 0 Z " fill="#FEFDFE" transform="translate(0,0)"/>
<path d="M0 0 C1.31734383 -0.0098568 1.31734383 -0.0098568 2.66130066 -0.01991272 C5.57595907 -0.03966892 8.49056588 -0.05131402 11.40527344 -0.0612793 C12.39991356 -0.06535482 13.39455368 -0.06943035 14.41933441 -0.07362938 C19.68466485 -0.0945009 24.94996915 -0.10879744 30.21533203 -0.11816406 C35.65397426 -0.12922543 41.09220699 -0.16361923 46.5307045 -0.20333576 C50.71204386 -0.22948434 54.89328546 -0.23785439 59.0746994 -0.24144554 C61.07935092 -0.24631674 63.08399792 -0.25794585 65.08856964 -0.27648354 C67.89661554 -0.30083538 70.70359955 -0.29991705 73.51171875 -0.29296875 C74.33792221 -0.30577881 75.16412567 -0.31858887 76.0153656 -0.33178711 C81.29031079 -0.28428246 84.38331874 0.5965933 88.51464844 4.17700195 C90.4779026 7.01795501 90.76130985 9.25791628 90.74169922 12.67016602 C90.74147263 13.99108246 90.74147263 13.99108246 90.74124146 15.33868408 C90.73091888 16.28048523 90.72059631 17.22228638 90.70996094 18.19262695 C90.70713104 19.16359314 90.70430115 20.13455933 90.7013855 21.13494873 C90.69020136 24.2324258 90.66509986 27.32961245 90.63964844 30.42700195 C90.62961636 32.52856027 90.62049091 34.63012313 90.61230469 36.73168945 C90.59026777 41.88023865 90.55574989 47.02857108 90.51464844 52.17700195 C96.12464844 52.17700195 101.73464844 52.17700195 107.51464844 52.17700195 C107.94777344 53.39387695 108.38089844 54.61075195 108.82714844 55.86450195 C110.07544379 59.22301087 111.62942652 62.12473789 113.51464844 65.17700195 C113.51464844 65.83700195 113.51464844 66.49700195 113.51464844 67.17700195 C114.09214844 67.46575195 114.66964844 67.75450195 115.26464844 68.05200195 C117.51464844 69.17700195 117.51464844 69.17700195 119.26464844 70.23950195 C121.51790521 71.17835894 123.29082223 71.46441305 125.70214844 71.73950195 C129.51464844 72.17700195 129.51464844 72.17700195 130.51464844 73.17700195 C131.85485413 91.93988161 125.5326006 111.85297345 113.51464844 126.17700195 C107.49503054 132.9510948 100.97698137 139.01077146 93.51464844 144.17700195 C99.78464844 144.50700195 106.05464844 144.83700195 112.51464844 145.17700195 C112.84464844 146.49700195 113.17464844 147.81700195 113.51464844 149.17700195 C61.04464844 149.17700195 8.57464844 149.17700195 -45.48535156 149.17700195 C-45.48535156 147.85700195 -45.48535156 146.53700195 -45.48535156 145.17700195 C-35.25535156 145.17700195 -25.02535156 145.17700195 -14.48535156 145.17700195 C-14.81535156 144.18700195 -15.14535156 143.19700195 -15.48535156 142.17700195 C-15.58630498 140.36391528 -15.62897884 138.54735709 -15.63925171 136.73149109 C-15.64785217 135.60012726 -15.65645264 134.46876343 -15.66531372 133.30311584 C-15.66957367 132.06097824 -15.67383362 130.81884064 -15.67822266 129.5390625 C-15.68640015 128.23153015 -15.69457764 126.9239978 -15.70300293 125.57684326 C-15.72919484 121.23915664 -15.74452653 116.9014605 -15.75878906 112.5637207 C-15.76414968 111.06962389 -15.76952719 109.57552713 -15.77492142 108.08143044 C-15.79654492 101.86630813 -15.81528161 95.6511884 -15.82654381 89.43603802 C-15.8427843 80.53267153 -15.87597001 71.62974133 -15.93294466 62.72653931 C-15.97165313 56.46401644 -15.99117747 50.20161022 -15.99646437 43.93897086 C-16.00011631 40.19949419 -16.01211998 36.46048315 -16.04456711 32.72113609 C-16.08025854 28.54820197 -16.07627466 24.37620515 -16.06884766 20.203125 C-16.08525299 18.96706009 -16.10165833 17.73099518 -16.11856079 16.45747375 C-16.05044711 7.12433245 -16.05044711 7.12433245 -13.07388306 3.42536926 C-8.79520457 -0.29103939 -5.45593877 0.01758419 0 0 Z " fill="#A01B3C" transform="translate(60.4853515625,33.822998046875)"/>
<path d="M0 0 C31.68 0 63.36 0 96 0 C96 9.57 96 19.14 96 29 C89.73 29.33 83.46 29.66 77 30 C76.67 31.670625 76.34 33.34125 76 35.0625 C74.53396774 40.35385364 72.6627171 43.33039432 68.33984375 46.6953125 C64.4332585 48.87360879 60.41191792 49.55700005 56 50 C55.51678921 61.08700324 56.14980558 70.43083885 60 81 C60.37382813 82.0621875 60.74765625 83.124375 61.1328125 84.21875 C63.48418074 90.38525213 66.34188067 95.2487566 70.64453125 100.2578125 C72 102 72 102 72 104 C48.24 104 24.48 104 0 104 C0 69.68 0 35.36 0 0 Z " fill="#FDFDFD" transform="translate(50,57)"/>
<path d="M0 0 C11.55 0 23.1 0 35 0 C35.99 2.97 36.98 5.94 38 9 C41.34365019 14.88482433 47.94037015 17.87537281 54.3125 19.640625 C54.869375 19.75921875 55.42625 19.8778125 56 20 C55.65410041 41.88601047 48.1493988 59.01618152 32.56835938 74.49560547 C20.61267796 85.9636797 20.61267796 85.9636797 16 86 C13.703125 84.375 13.703125 84.375 11.25 82 C10.36957031 81.16210938 9.48914063 80.32421875 8.58203125 79.4609375 C7.72996094 78.64882812 6.87789062 77.83671875 6 77 C4.65142958 75.86829766 3.29774835 74.74263893 1.9375 73.625 C-9.69390948 63.35371502 -19.2422998 48.4275716 -20.4140625 32.59765625 C-20.49257238 31.08634105 -20.5628067 29.57457454 -20.625 28.0625 C-20.66367188 27.28326172 -20.70234375 26.50402344 -20.7421875 25.70117188 C-20.83544127 23.80112621 -20.91875962 21.90059722 -21 20 C-20.26394531 19.75765625 -19.52789062 19.5153125 -18.76953125 19.265625 C-11.60697647 16.80556655 -6.39445359 14.95408105 -2.75 8 C-1.44871293 5.26943041 -0.74904235 2.99616941 0 0 Z " fill="#FCFAFA" transform="translate(130,91)"/>
<path d="M0 0 C0.33 0 0.66 0 1 0 C1 32.34 1 64.68 1 98 C25.09 98 49.18 98 74 98 C71.03 93.71 68.06 89.42 65 85 C61.625 77.125 61.625 77.125 62 73 C62.66 73 63.32 73 64 73 C64 73.66 64 74.32 64 75 C64.66 75 65.32 75 66 75 C66.43828125 75.93199219 66.8765625 76.86398438 67.328125 77.82421875 C73.98280995 91.41348372 85.03474593 106.15650383 99.015625 112.984375 C102.2182903 113.00959284 103.50738085 111.17119816 105.75 109 C108.78381454 106.10832611 111.80275595 103.32011894 115.0625 100.6875 C122.16263099 94.50908987 127.65885433 86.3048004 132 78 C133.5625 79.1875 133.5625 79.1875 135 81 C134.21544883 91.56407277 121.41143363 102.25146586 114 109 C111.39290552 111.12597452 108.76057388 113.07280692 106 115 C112.27 115.33 118.54 115.66 125 116 C125.33 117.32 125.66 118.64 126 120 C73.53 120 21.06 120 -33 120 C-33 118.68 -33 117.36 -33 116 C-22.77 116 -12.54 116 -2 116 C-2.33 115.01 -2.66 114.02 -3 113 C-3.09021054 111.61063976 -3.1262725 110.21735888 -3.12698364 108.82507324 C-3.12980347 107.97545517 -3.13262329 107.1258371 -3.13552856 106.25047302 C-3.13350433 105.32154739 -3.1314801 104.39262177 -3.12939453 103.43554688 C-3.13114685 102.45481705 -3.13289917 101.47408722 -3.13470459 100.46363831 C-3.13911304 97.21532431 -3.13618863 93.96706457 -3.1328125 90.71875 C-3.13348583 88.46577952 -3.1344561 86.2128091 -3.13571167 83.95983887 C-3.13718728 79.23542591 -3.13503846 74.51103185 -3.13037109 69.78662109 C-3.1246739 63.72348273 -3.12795363 57.66038863 -3.13394356 51.59725189 C-3.13755285 46.9442308 -3.13640888 42.29122025 -3.13381577 37.63819885 C-3.13314752 35.40222671 -3.13397137 33.16625362 -3.13629532 30.93028259 C-3.13882783 27.80831357 -3.1349727 24.68641676 -3.12939453 21.56445312 C-3.13141876 20.6355275 -3.13344299 19.70660187 -3.13552856 18.74952698 C-3.13129883 17.47509987 -3.13129883 17.47509987 -3.12698364 16.17492676 C-3.12660662 15.43677986 -3.12622959 14.69863297 -3.12584114 13.93811798 C-3 12 -3 12 -2 9 C-1.34 9 -0.68 9 0 9 C0 6.03 0 3.06 0 0 Z " fill="#6A1A2D" transform="translate(48,63)"/>
<path d="M0 0 C4.65702344 2.45552145 8.31667974 4.95003921 10 10 C10.068991 12.06145107 10.08467727 14.12501401 10.0625 16.1875 C10.05347656 17.27417969 10.04445312 18.36085938 10.03515625 19.48046875 C10.02355469 20.31191406 10.01195312 21.14335938 10 22 C10.78375 22.12375 11.5675 22.2475 12.375 22.375 C15 23 15 23 17 25 C17.30078125 28.265625 17.30078125 28.265625 17.3125 32.25 C17.32925781 33.55453125 17.34601563 34.8590625 17.36328125 36.203125 C16.73427844 42.77721886 13.89738959 46.7147841 9 51 C4.45439291 52.51520236 -0.05032006 52.26632502 -4.8125 52.3125 C-6.29073242 52.35600586 -6.29073242 52.35600586 -7.79882812 52.40039062 C-13.71752773 52.45206497 -17.39094908 52.11653671 -22 48 C-26.98090352 42.49969745 -26.40577956 35.25622244 -26.3359375 28.29296875 C-26 25 -26 25 -24 22 C-22.68 22 -21.36 22 -20 22 C-20.05800781 21.29875 -20.11601562 20.5975 -20.17578125 19.875 C-20.50999518 12.8469584 -19.71547541 8.34420547 -15 3 C-10.73670203 -0.89787243 -5.49499448 -0.81015944 0 0 Z " fill="#861F39" transform="translate(152,101)"/>
<path d="M0 0 C1.22271858 0.00675247 1.22271858 0.00675247 2.47013855 0.01364136 C3.76325958 0.00334648 3.76325958 0.00334648 5.08250427 -0.00715637 C7.93657328 -0.02548065 10.79009552 -0.02157881 13.64421082 -0.01589966 C15.62574442 -0.02045887 17.60727645 -0.02576366 19.58880615 -0.03178406 C23.7441398 -0.0407263 27.89928137 -0.03827949 32.05461121 -0.02835083 C37.38250775 -0.01686172 42.70974148 -0.03706619 48.03755093 -0.06626797 C52.13048523 -0.08460526 56.22325999 -0.0843424 60.31622505 -0.07863045 C62.28064465 -0.07847692 64.24507486 -0.08454718 66.20945549 -0.09692192 C68.95562808 -0.11178292 71.70056733 -0.10119103 74.44670105 -0.08401489 C75.25982254 -0.09368286 76.07294403 -0.10335083 76.91070557 -0.11331177 C80.2626338 -0.06936201 82.63611518 0.19354404 85.55914307 1.8865509 C87.02311707 4.41769409 87.02311707 4.41769409 87.02311707 13.41769409 C55.34311707 13.41769409 23.66311707 13.41769409 -8.97688293 13.41769409 C-8.97688293 10.11769409 -8.97688293 6.81769409 -8.97688293 3.41769409 C-5.62604929 0.06686045 -4.53583588 0.06012527 0 0 Z " fill="#FEFDFE" transform="translate(58.97688293457031,38.582305908203125)"/>
<path d="M0 0 C9.86643315 -0.20922536 19.73233232 -0.36879246 29.60053825 -0.46630955 C34.1837122 -0.51313239 38.76536038 -0.57655683 43.34765625 -0.67895508 C47.77632582 -0.77729241 52.20353537 -0.83066956 56.63321304 -0.85389519 C58.31658017 -0.87042895 59.99987405 -0.90271768 61.68261337 -0.95157051 C76.49396672 -1.36417126 76.49396672 -1.36417126 82.86376953 4.36743164 C84.25670875 5.89882806 85.63694079 7.44194857 87 9 C87.74530975 9.54929672 88.49061951 10.09859344 89.2585144 10.66453552 C89.83320465 11.1052388 90.4078949 11.54594208 91 12 C91 12.66 91 13.32 91 14 C79.72573133 14.06947561 68.45151349 14.12279892 57.17707443 14.15543652 C51.94202876 14.17110003 46.70712942 14.19235094 41.47216797 14.22631836 C36.42121185 14.25888718 31.37039658 14.27684785 26.31934357 14.28463173 C24.39119499 14.29017968 22.46305421 14.30101334 20.53496552 14.31719017 C17.83661672 14.33893148 15.13885181 14.34196831 12.44042969 14.34057617 C11.64129654 14.351362 10.84216339 14.36214783 10.01881409 14.3732605 C6.85477695 14.35556838 4.37731366 14.17511782 1.48809814 12.83418274 C-0.59162648 10.2707799 -0.40319742 8.5679451 -0.25 5.3125 C-0.21390625 4.31863281 -0.1778125 3.32476562 -0.140625 2.30078125 C-0.09421875 1.54152344 -0.0478125 0.78226563 0 0 Z " fill="#EFEAEB" transform="translate(50,165)"/>
<path d="M0 0 C2 2 2 2 2.1953125 4.8203125 C2.13020833 7.88020833 2.06510417 10.94010417 2 14 C7.94 14 13.88 14 20 14 C20.99 16.64 21.98 19.28 23 22 C23.98387706 23.67623498 24.97862543 25.34634594 26 27 C26 27.66 26 28.32 26 29 C26.5775 29.28875 27.155 29.5775 27.75 29.875 C30 31 30 31 31.75 32.0625 C34.00325678 33.00135699 35.7761738 33.28741109 38.1875 33.5625 C42 34 42 34 43 35 C43.91631 47.82833994 40.52111426 61.08904416 36 73 C34.02 72.01 34.02 72.01 32 71 C32.28778244 69.47842689 32.58046001 67.95777947 32.875 66.4375 C33.03742188 65.59058594 33.19984375 64.74367188 33.3671875 63.87109375 C34 61 34 61 35 57.65625 C36.05888563 53.7846994 36.64912733 50.03720699 37.125 46.0625 C37.25455078 45.03672852 37.25455078 45.03672852 37.38671875 43.99023438 C37.59602285 42.32742954 37.79871722 40.66379487 38 39 C37.0925 38.86722656 36.185 38.73445313 35.25 38.59765625 C27.9772559 37.26024057 23.55997099 34.14873551 19.12890625 28.29296875 C18 26 18 26 17 19 C5.45 19 -6.1 19 -18 19 C-18.33 21.31 -18.66 23.62 -19 26 C-21.95141078 31.81368499 -26.10457147 35.41428573 -32 38 C-34.32722146 38.37362527 -36.66054081 38.71279583 -39 39 C-38.52200865 42.37516753 -38.0423961 45.75010281 -37.5625 49.125 C-37.42779297 50.07632813 -37.29308594 51.02765625 -37.15429688 52.0078125 C-36.48888877 56.6818987 -35.8067161 61.34767608 -35 66 C-35.33 65.34 -35.66 64.68 -36 64 C-36.66 64 -37.32 64 -38 64 C-38.495 64.99 -38.495 64.99 -39 66 C-42.74057143 55.46294388 -43.7954197 46.09675674 -43 35 C-41.42683902 33.42683902 -39.54685469 33.6176095 -37.375 33.3125 C-31.98278689 32.23251454 -28.22360526 30.57949494 -25 26 C-23.91058446 23.11365183 -23.15088426 20.30889391 -22.5078125 17.29296875 C-22 15 -22 15 -21 14 C-19.5112814 13.91330568 -18.018555 13.89296506 -16.52734375 13.90234375 C-15.62822266 13.90556641 -14.72910156 13.90878906 -13.80273438 13.91210938 C-12.85720703 13.92048828 -11.91167969 13.92886719 -10.9375 13.9375 C-9.98810547 13.94201172 -9.03871094 13.94652344 -8.06054688 13.95117188 C-5.70696935 13.9629989 -3.35351523 13.97947975 -1 14 C-1.01160156 13.15695313 -1.02320313 12.31390625 -1.03515625 11.4453125 C-1.04417969 10.34960938 -1.05320313 9.25390625 -1.0625 8.125 C-1.07410156 7.03445312 -1.08570313 5.94390625 -1.09765625 4.8203125 C-1 2 -1 2 0 0 Z " fill="#8E1E39" transform="translate(148,72)"/>
<path d="M0 0 C4.53897705 -0.02465392 9.07791543 -0.04283789 13.61694336 -0.05493164 C15.16219766 -0.0599714 16.70744716 -0.0668032 18.25268555 -0.07543945 C20.46925029 -0.08752076 22.68575218 -0.09323173 24.90234375 -0.09765625 C25.5971434 -0.10281754 26.29194305 -0.10797882 27.00779724 -0.11329651 C28.6722933 -0.11349277 30.33665499 -0.06189129 32 0 C33.85290352 1.85290352 33.21658627 4.76624631 33.25 7.25 C33.27578125 8.38953125 33.3015625 9.5290625 33.328125 10.703125 C32.86322306 15.37428257 31.44465548 17.78372756 27.875 20.7890625 C23.86601531 22.47762942 20.30559063 22.43790636 16 22.375 C15.2059375 22.38660156 14.411875 22.39820313 13.59375 22.41015625 C8.94769765 22.38692599 5.70424384 22.10090109 2 19 C-0.53062588 15.33522167 -0.23013863 11.52833365 -0.125 7.25 C-0.11597656 6.55261719 -0.10695312 5.85523438 -0.09765625 5.13671875 C-0.07419888 3.42433042 -0.03833104 1.71211996 0 0 Z " fill="#FAF8F8" transform="translate(131,127)"/>
<path d="M0 0 C1.31734383 -0.0098568 1.31734383 -0.0098568 2.66130066 -0.01991272 C5.57595907 -0.03966892 8.49056588 -0.05131402 11.40527344 -0.0612793 C12.39991356 -0.06535482 13.39455368 -0.06943035 14.41933441 -0.07362938 C19.68466485 -0.0945009 24.94996915 -0.10879744 30.21533203 -0.11816406 C35.65397426 -0.12922543 41.09220699 -0.16361923 46.5307045 -0.20333576 C50.71204386 -0.22948434 54.89328546 -0.23785439 59.0746994 -0.24144554 C61.07935092 -0.24631674 63.08399792 -0.25794585 65.08856964 -0.27648354 C67.89661554 -0.30083538 70.70359955 -0.29991705 73.51171875 -0.29296875 C74.33792221 -0.30577881 75.16412567 -0.31858887 76.0153656 -0.33178711 C81.31215925 -0.2840857 84.30001503 0.68205245 88.51464844 4.17700195 C89.95214844 6.17700195 89.95214844 6.17700195 90.51464844 8.17700195 C90.13964844 10.42700195 90.13964844 10.42700195 89.51464844 12.17700195 C86.51464844 11.17700195 86.51464844 11.17700195 84.3712616 8.65196228 C80.47661042 5.2776492 77.79795277 5.48638999 72.80883789 5.57763672 C71.94325256 5.573694 71.07766724 5.56975128 70.18585205 5.56568909 C67.33261746 5.55899072 64.48099227 5.58810999 61.62792969 5.6184082 C59.64446829 5.62265882 57.66100191 5.62498693 55.67753601 5.62547302 C51.52559796 5.63163457 47.37420023 5.65432072 43.22241211 5.68994141 C37.8922796 5.73530207 32.56263516 5.74997211 27.23232746 5.75367832 C23.13947204 5.75809924 19.0467197 5.77338804 14.95390892 5.79255486 C12.98785438 5.80145136 11.0217888 5.8081744 9.05571938 5.81271553 C6.3143816 5.82172521 3.57349245 5.8440847 0.83227539 5.87060547 C-0.39347954 5.87160248 -0.39347954 5.87160248 -1.64399719 5.87261963 C-6.03298848 5.76008701 -6.03298848 5.76008701 -9.48535156 8.17700195 C-9.94697584 10.60952857 -9.94697584 10.60952857 -10.11035156 13.30200195 C-10.18511719 14.21208008 -10.25988281 15.1221582 -10.33691406 16.05981445 C-10.38589844 16.75848633 -10.43488281 17.4571582 -10.48535156 18.17700195 C-10.81535156 18.17700195 -11.14535156 18.17700195 -11.48535156 18.17700195 C-11.81535156 15.86700195 -12.14535156 13.55700195 -12.48535156 11.17700195 C-13.14535156 11.17700195 -13.80535156 11.17700195 -14.48535156 11.17700195 C-15.29785156 9.55200195 -15.29785156 9.55200195 -15.48535156 7.17700195 C-10.62041087 0.47127289 -7.90205314 0.02546788 0 0 Z " fill="#A81036" transform="translate(60.4853515625,33.822998046875)"/>
<path d="M0 0 C3.96461237 -0.19978665 7.92722734 -0.34383755 11.89575195 -0.43945312 C13.89834661 -0.49883893 15.89954228 -0.60056796 17.90039062 -0.703125 C24.59270145 -0.83798265 29.03718211 -0.7739897 34.19140625 3.78125 C35.49205692 5.15876824 36.76313239 6.56493653 38 8 C39.32 9.32 40.64 10.64 42 12 C27.81 12 13.62 12 -1 12 C-0.01 10.68 0.98 9.36 2 8 C1.71814575 5.11099395 0.91884332 2.75652997 0 0 Z " fill="#FEFDFD" transform="translate(99,166)"/>
<path d="M0 0 C0.33 0 0.66 0 1 0 C1 26.4 1 52.8 1 80 C-0.485 80.495 -0.485 80.495 -2 81 C-2 91.56 -2 102.12 -2 113 C-2.33 113 -2.66 113 -3 113 C-3.02314154 99.88305122 -3.04092437 86.76610728 -3.05181217 73.64914227 C-3.05703702 67.55881213 -3.06412749 61.46849594 -3.07543945 55.37817383 C-3.08628242 49.50378596 -3.09227985 43.62941152 -3.09487724 37.75501442 C-3.09672894 35.51066692 -3.10034468 33.26632018 -3.10573006 31.02197838 C-3.11295913 27.88532277 -3.11399014 24.7487231 -3.11352539 21.61206055 C-3.11712067 20.67842178 -3.12071594 19.74478302 -3.12442017 18.78285217 C-3.1230455 17.92889862 -3.12167084 17.07494507 -3.12025452 16.19511414 C-3.12117631 15.45307078 -3.1220981 14.71102743 -3.12304783 13.94649792 C-3 12 -3 12 -2 9 C-1.34 9 -0.68 9 0 9 C0 6.03 0 3.06 0 0 Z " fill="#830D2D" transform="translate(48,63)"/>
<path d="M0 0 C2.97672584 1.77280561 5.42804007 3.85608015 7 7 C7 10.3 7 13.6 7 17 C0.07 17 -6.86 17 -14 17 C-14 7 -14 7 -11.625 3.4375 C-7.66646121 -0.23828602 -5.4022184 -0.54022184 0 0 Z " fill="#FDFCFC" transform="translate(151,105)"/>
<path d="M0 0 C-1.30268262 4.05279038 -2.62906235 5.92262253 -6.1875 8.25 C-7.29158203 9.00023438 -7.29158203 9.00023438 -8.41796875 9.765625 C-11.59154293 11.28279511 -14.51921216 11.64299612 -18 12 C-17.52200865 15.37516753 -17.0423961 18.75010281 -16.5625 22.125 C-16.42779297 23.07632813 -16.29308594 24.02765625 -16.15429688 25.0078125 C-15.48888877 29.6818987 -14.8067161 34.34767608 -14 39 C-14.33 38.34 -14.66 37.68 -15 37 C-15.66 37 -16.32 37 -17 37 C-17.33 37.66 -17.66 38.32 -18 39 C-21.74057143 28.46294388 -22.7954197 19.09675674 -22 8 C-20.43479101 6.43479101 -18.59757952 6.57978313 -16.4375 6.25 C-11.75192036 5.37732757 -8.53259608 3.79807567 -4.69140625 1.0234375 C-3 0 -3 0 0 0 Z " fill="#891D38" transform="translate(127,99)"/>
<path d="M0 0 C9.57 0 19.14 0 29 0 C29.33 1.32 29.66 2.64 30 4 C20.1 4 10.2 4 0 4 C0 2.68 0 1.36 0 0 Z " fill="#631527" transform="translate(178,179)"/>
<path d="M0 0 C0.74886475 0.00523682 1.49772949 0.01047363 2.26928711 0.01586914 C3.07817383 0.0190918 3.88706055 0.02231445 4.72045898 0.02563477 C5.5705957 0.03401367 6.42073242 0.04239258 7.29663086 0.05102539 C8.15063477 0.05553711 9.00463867 0.06004883 9.88452148 0.06469727 C12.00108749 0.07652166 14.11761771 0.0944577 16.23413086 0.11352539 C16.56413086 1.43352539 16.89413086 2.75352539 17.23413086 4.11352539 C13.92418373 5.76849895 10.24290085 5.21436874 6.60913086 5.17602539 C5.80733398 5.17151367 5.00553711 5.16700195 4.17944336 5.16235352 C2.1976408 5.15055707 0.21587653 5.13262144 -1.76586914 5.11352539 C-2.32836914 3.17602539 -2.32836914 3.17602539 -2.76586914 1.11352539 C-1.76586914 0.11352539 -1.76586914 0.11352539 0 0 Z " fill="#A51136" transform="translate(97.765869140625,42.886474609375)"/>
<path d="M0 0 C1.2065625 0.0309375 1.2065625 0.0309375 2.4375 0.0625 C3.64318053 4.73451205 3.53132426 9.27746292 3.4375 14.0625 C1.1275 14.0625 -1.1825 14.0625 -3.5625 14.0625 C-3.58935938 11.91673363 -3.60883088 9.77087355 -3.625 7.625 C-3.63660156 6.43003906 -3.64820313 5.23507813 -3.66015625 4.00390625 C-3.53008299 0.08609959 -3.53008299 0.08609959 0 0 Z " fill="#7B1A31" transform="translate(147.5625,130.9375)"/>
<path d="M0 0 C0.66 0 1.32 0 2 0 C2 0.66 2 1.32 2 2 C2.7425 2.268125 3.485 2.53625 4.25 2.8125 C6.86636554 3.94229421 8.80187111 5.20893202 11 7 C10.34 7 9.68 7 9 7 C9 7.66 9 8.32 9 9 C15.27 9 21.54 9 28 9 C28 9.33 28 9.66 28 10 C24.62529496 10.11689626 21.2511157 10.18747934 17.875 10.25 C16.92367187 10.28351563 15.97234375 10.31703125 14.9921875 10.3515625 C8.99056707 10.43491834 5.53453441 10.06341395 1 6 C-0.375 3.25 -0.375 3.25 -1 1 C-0.67 0.67 -0.34 0.34 0 0 Z " fill="#76172F" transform="translate(129,143)"/>
<path d="M0 0 C-0.89453125 2.015625 -0.89453125 2.015625 -3 4 C-6.2572771 4.37942771 -9.43127358 4.05013499 -12.6875 3.75 C-13.58017578 3.68425781 -14.47285156 3.61851562 -15.39257812 3.55078125 C-17.59718985 3.3857301 -19.79846902 3.20149283 -22 3 C-22 2.34 -22 1.68 -22 1 C-18.89032417 -0.55483792 -15.54467818 -0.41921406 -12.125 -0.625 C-11.40441406 -0.6765625 -10.68382812 -0.728125 -9.94140625 -0.78125 C-6.44885852 -0.99993623 -3.33440481 -1.16966033 0 0 Z " fill="#7B283B" transform="translate(160,149)"/>
<path d="M0 0 C0.33 0 0.66 0 1 0 C1 4.95 1 9.9 1 15 C1.66 15 2.32 15 3 15 C3 11.04 3 7.08 3 3 C3.33 3 3.66 3 4 3 C4.06058594 3.97582031 4.12117187 4.95164063 4.18359375 5.95703125 C4.26738281 7.22933594 4.35117188 8.50164062 4.4375 9.8125 C4.51871094 11.07707031 4.59992188 12.34164062 4.68359375 13.64453125 C4.87184547 16.99181893 4.87184547 16.99181893 6 20 C5.34 20 4.68 20 4 20 C4 19.34 4 18.68 4 18 C2.68 18.33 1.36 18.66 0 19 C-1.19825457 15.40523628 -1.14608744 12.11450601 -1.125 8.375 C-1.12886719 7.68148437 -1.13273437 6.98796875 -1.13671875 6.2734375 C-1.12666646 1.12666646 -1.12666646 1.12666646 0 0 Z " fill="#8A3449" transform="translate(127,125)"/>
<path d="M0 0 C2.625 0.375 2.625 0.375 5 1 C5.625 3.375 5.625 3.375 6 6 C5.34 6.66 4.68 7.32 4 8 C1.375 7.625 1.375 7.625 -1 7 C-1.625 4.625 -1.625 4.625 -2 2 C-1.34 1.34 -0.68 0.68 0 0 Z " fill="#691A2C" transform="translate(96,168)"/>
<path d="M0 0 C0.33 0 0.66 0 1 0 C1.53093324 1.93475671 2.04942317 3.87293155 2.5625 5.8125 C2.85253906 6.89144531 3.14257812 7.97039062 3.44140625 9.08203125 C4 12 4 12 3 15 C3 14.34 3 13.68 3 13 C2.34 13 1.68 13 1 13 C0.67 13.66 0.34 14.32 0 15 C-1.31626692 11.38026598 -2 8.90432869 -2 5 C-1.34 5 -0.68 5 0 5 C0 3.35 0 1.7 0 0 Z " fill="#7C142D" transform="translate(109,123)"/>
<path d="M0 0 C0.33 0.66 0.66 1.32 1 2 C1.99 2 2.98 2 4 2 C2.55873214 5.36295835 0.79407345 7.62927102 -2 10 C-2.99 10 -3.98 10 -5 10 C-3.84414715 6.08788267 -2.64465038 3.1254959 0 0 Z " fill="#751930" transform="translate(163,142)"/>
<path d="M0 0 C1.4540625 0.0309375 1.4540625 0.0309375 2.9375 0.0625 C3.5 2 3.5 2 3.9375 4.0625 C2.9375 5.0625 2.9375 5.0625 -0.125 5.125 C-1.094375 5.104375 -2.06375 5.08375 -3.0625 5.0625 C-3.625 3.125 -3.625 3.125 -4.0625 1.0625 C-3.0625 0.0625 -3.0625 0.0625 0 0 Z " fill="#AA1F41" transform="translate(85.0625,42.9375)"/>
<path d="M0 0 C0.66 0 1.32 0 2 0 C2 0.66 2 1.32 2 2 C2.66 2 3.32 2 4 2 C5.32 4.97 6.64 7.94 8 11 C7.34 11 6.68 11 6 11 C5.34 10.01 4.68 9.02 4 8 C3.01 8 2.02 8 1 8 C0.67 5.36 0.34 2.72 0 0 Z " fill="#7F233A" transform="translate(110,136)"/>
<path d="M0 0 C0.33 0 0.66 0 1 0 C1.06058594 0.97582031 1.12117187 1.95164063 1.18359375 2.95703125 C1.26738281 4.22933594 1.35117188 5.50164062 1.4375 6.8125 C1.51871094 8.07707031 1.59992188 9.34164062 1.68359375 10.64453125 C1.87184547 13.99181893 1.87184547 13.99181893 3 17 C2.34 17 1.68 17 1 17 C1 16.34 1 15.68 1 15 C-0.32 15.33 -1.64 15.66 -3 16 C-2.67 14.68 -2.34 13.36 -2 12 C-1.34 12 -0.68 12 0 12 C0 8.04 0 4.08 0 0 Z " fill="#8D4254" transform="translate(130,128)"/>
<path d="M0 0 C1.65 0 3.3 0 5 0 C5.33 1.32 5.66 2.64 6 4 C4.02 4 2.04 4 0 4 C0.66 3.34 1.32 2.68 2 2 C1.34 1.34 0.68 0.68 0 0 Z " fill="#A00A30" transform="translate(83,43)"/>
</svg>
